<svg width="12" height="12" viewBox="0 0 12 12" fill="none" xmlns="http://www.w3.org/2000/svg">
<g clip-path="url(#clip0_638_2498)">
<path d="M12 6C12 2.6863 9.3137 7.62939e-06 6 7.62939e-06C2.68629 7.62939e-06 0 2.6863 0 6C0 8.81388 1.93716 11.1749 4.55054 11.8233V7.83351H3.31329V6H4.55054V5.20995C4.55054 3.16774 5.47473 2.22118 7.47969 2.22118C7.8598 2.22118 8.5157 2.2957 8.78402 2.37025V4.03234C8.64239 4.01744 8.39644 4.00997 8.09085 4.00997C7.10702 4.00997 6.72688 4.38264 6.72688 5.35157V6H8.6867L8.35003 7.83351H6.72688V11.9561C9.69775 11.5972 12 9.06763 12 6Z" fill="#0866FF"/>
<path d="M8.35021 7.83351L8.6869 6H6.72709V5.35155C6.72709 4.38262 7.1072 4.00997 8.09103 4.00997C8.39663 4.00997 8.64258 4.01741 8.7842 4.03232V2.37025C8.51588 2.2957 7.85999 2.22116 7.47987 2.22116C5.47494 2.22116 4.55072 3.16774 4.55072 5.20995V6H3.31348V7.83351H4.55072V11.8233C5.01496 11.9385 5.50036 12 6.00018 12C6.24627 12 6.48877 11.9848 6.72709 11.9561V7.83351H8.35021Z" fill="white"/>
</g>
<defs>
<clipPath id="clip0_638_2498">
<rect width="12" height="12" fill="white"/>
</clipPath>
</defs>
</svg>
