<svg width="12" height="12" viewBox="0 0 12 12" fill="none" xmlns="http://www.w3.org/2000/svg">
<g clip-path="url(#clip0_638_2497)">
<path d="M6 12C9.31371 12 12 9.31371 12 6C12 2.68629 9.31371 0 6 0C2.68629 0 0 2.68629 0 6C0 9.31371 2.68629 12 6 12Z" fill="url(#paint0_linear_638_2497)"/>
<path fill-rule="evenodd" clip-rule="evenodd" d="M2.71552 5.93648C4.46464 5.17442 5.631 4.67202 6.21458 4.42928C7.88085 3.73623 8.22708 3.61583 8.45275 3.61186C8.50239 3.61098 8.61337 3.62329 8.68526 3.68162C8.74596 3.73087 8.76266 3.79741 8.77065 3.8441C8.77864 3.8908 8.78859 3.99718 8.78068 4.0803C8.69039 5.02905 8.29968 7.33139 8.10091 8.394C8.0168 8.84363 7.85119 8.99439 7.69087 9.00914C7.34243 9.0412 7.07785 8.77887 6.74038 8.55766C6.2123 8.21149 5.91397 7.99601 5.40138 7.65822C4.80899 7.26784 5.19301 7.05328 5.53061 6.70264C5.61896 6.61087 7.15416 5.21449 7.18387 5.08782C7.18759 5.07198 7.19104 5.01292 7.15595 4.98174C7.12087 4.95056 7.06909 4.96122 7.03173 4.9697C6.97876 4.98172 6.13515 5.53932 4.50089 6.64249C4.26144 6.80692 4.04454 6.88704 3.85022 6.88284C3.63599 6.87821 3.22389 6.76171 2.91754 6.66212C2.54179 6.53998 2.24315 6.47541 2.26916 6.26797C2.2827 6.15993 2.43149 6.04943 2.71552 5.93648Z" fill="white"/>
</g>
<defs>
<linearGradient id="paint0_linear_638_2497" x1="600" y1="0" x2="600" y2="1191.1" gradientUnits="userSpaceOnUse">
<stop stop-color="#2AABEE"/>
<stop offset="1" stop-color="#229ED9"/>
</linearGradient>
<clipPath id="clip0_638_2497">
<rect width="12" height="12" fill="white"/>
</clipPath>
</defs>
</svg>
