<svg width="12" height="12" viewBox="0 0 12 12" fill="none" xmlns="http://www.w3.org/2000/svg">
<path d="M8.5886 4.33173C9.36027 4.88532 10.3056 5.21104 11.3266 5.21104V3.23931C11.1334 3.23935 10.9407 3.21913 10.7516 3.17893V4.73097C9.73069 4.73097 8.78547 4.40525 8.01359 3.8517V7.87544C8.01359 9.88831 6.38763 11.52 4.38203 11.52C3.63369 11.52 2.93814 11.2929 2.36035 10.9035C3.01981 11.5802 3.93947 12 4.95691 12C6.96264 12 8.58868 10.3683 8.58868 8.35539V4.33173H8.5886ZM9.29793 2.3425C8.90356 1.91011 8.64462 1.35134 8.5886 0.733587V0.47998H8.0437C8.18086 1.26514 8.64869 1.93594 9.29793 2.3425ZM3.6289 9.3589C3.40856 9.06897 3.28949 8.7143 3.29002 8.34962C3.29002 7.42901 4.03372 6.68256 4.95125 6.68256C5.12225 6.68252 5.29222 6.7088 5.45518 6.76069V4.74489C5.26474 4.71869 5.07254 4.70757 4.88042 4.71165V6.28065C4.71734 6.22876 4.54729 6.2024 4.37625 6.20257C3.45872 6.20257 2.71506 6.94894 2.71506 7.86967C2.71506 8.5207 3.08679 9.08433 3.6289 9.3589Z" fill="#FF004F"/>
<path d="M8.01347 3.85166C8.78536 4.40521 9.73057 4.73092 10.7515 4.73092V3.17889C10.1816 3.05707 9.67713 2.7582 9.29781 2.3425C8.64853 1.93589 8.18074 1.2651 8.04358 0.47998H6.61229V8.35531C6.60905 9.27341 5.86661 10.0168 4.95105 10.0168C4.41153 10.0168 3.93222 9.75871 3.62866 9.3589C3.08659 9.08433 2.71486 8.52066 2.71486 7.86971C2.71486 6.94906 3.45852 6.20261 4.37605 6.20261C4.55185 6.20261 4.72128 6.23008 4.88022 6.28069V4.71169C2.90985 4.75255 1.3252 6.36825 1.3252 8.35535C1.3252 9.34729 1.71981 10.2465 2.36028 10.9036C2.93807 11.2929 3.63362 11.52 4.38196 11.52C6.3876 11.52 8.01352 9.88827 8.01352 7.87544V3.85166H8.01347Z" fill="black"/>
<path d="M10.7513 3.1789V2.75924C10.2374 2.76002 9.73358 2.61559 9.29758 2.34247C9.68354 2.76653 10.1918 3.05893 10.7513 3.1789ZM8.04335 0.479992C8.03027 0.404956 8.02022 0.329425 8.01324 0.253607V0H6.03701V7.87541C6.03385 8.79338 5.29146 9.53678 4.37582 9.53678C4.107 9.53678 3.85319 9.47274 3.62842 9.35895C3.93198 9.75872 4.4113 10.0168 4.95082 10.0168C5.8663 10.0168 6.60885 9.27346 6.61205 8.35536V0.479992H8.04335ZM4.88007 4.7117V4.26495C4.71494 4.2423 4.54845 4.23093 4.38177 4.23101C2.37596 4.23097 0.75 5.86269 0.75 7.87541C0.75 9.13726 1.38903 10.2493 2.36008 10.9035C1.71962 10.2465 1.325 9.34722 1.325 8.35532C1.325 6.36826 2.90962 4.75256 4.88007 4.7117Z" fill="#00F2EA"/>
</svg>
