<svg width="54" height="15" viewBox="0 0 54 15" fill="none" xmlns="http://www.w3.org/2000/svg">
<path d="M3.20633 11.0879V7.02789L0.000328126 0.335891H1.16233L2.88433 4.01789C3.08966 4.44722 3.27166 4.86722 3.43033 5.27789C3.59833 5.67922 3.76166 6.07589 3.92033 6.46789H3.62633C3.79433 6.04789 3.95766 5.64656 4.11633 5.26389C4.28433 4.87189 4.471 4.46122 4.67633 4.03189L6.44033 0.335891H7.56033L4.27033 7.04189V11.0879H3.20633ZM13.5688 7.12589C13.5688 6.47256 13.4848 5.90322 13.3168 5.41789C13.1488 4.92322 12.9015 4.54056 12.5748 4.26989C12.2575 3.98989 11.8608 3.84989 11.3848 3.84989C10.9088 3.84989 10.5028 3.98989 10.1668 4.26989C9.83084 4.54056 9.57418 4.92322 9.39684 5.41789C9.21951 5.91256 9.13084 6.47722 9.13084 7.11189C9.13084 7.75589 9.21484 8.32522 9.38284 8.81989C9.55084 9.30522 9.80284 9.68322 10.1388 9.95389C10.4748 10.2246 10.8762 10.3599 11.3428 10.3599C11.8282 10.3599 12.2342 10.2246 12.5608 9.95389C12.8968 9.68322 13.1488 9.30522 13.3168 8.81989C13.4848 8.32522 13.5688 7.76056 13.5688 7.12589ZM14.6608 7.11189C14.6608 7.92389 14.5302 8.64256 14.2688 9.26789C14.0075 9.88389 13.6295 10.3692 13.1348 10.7239C12.6402 11.0692 12.0335 11.2419 11.3148 11.2419C10.5868 11.2419 9.98018 11.0692 9.49484 10.7239C9.00951 10.3692 8.64551 9.88389 8.40284 9.26789C8.16951 8.64256 8.05284 7.92856 8.05284 7.12589C8.05284 6.32322 8.18351 5.60922 8.44484 4.98389C8.71551 4.35856 9.10284 3.86856 9.60684 3.51389C10.1108 3.14989 10.7128 2.96789 11.4128 2.96789C12.1502 2.96789 12.7568 3.14989 13.2328 3.51389C13.7088 3.86856 14.0635 4.35389 14.2968 4.96989C14.5395 5.58589 14.6608 6.29989 14.6608 7.11189ZM26.2485 11.0879H25.2265V5.75389C25.2265 5.10989 25.0911 4.62456 24.8205 4.29789C24.5591 3.97122 24.2231 3.80789 23.8125 3.80789C23.4858 3.80789 23.1778 3.91056 22.8885 4.11589C22.6085 4.32122 22.3798 4.63389 22.2025 5.05389C22.0251 5.46456 21.9365 5.97789 21.9365 6.59389V11.0879H20.8865V5.75389C20.8865 5.10989 20.7558 4.62456 20.4945 4.29789C20.2331 3.97122 19.8785 3.80789 19.4305 3.80789C19.0945 3.80789 18.7771 3.91056 18.4785 4.11589C18.1891 4.32122 17.9511 4.63389 17.7645 5.05389C17.5778 5.46456 17.4845 5.97789 17.4845 6.59389V11.0879H16.4485V3.12189H17.4285L17.4705 5.26389H17.1205C17.2511 4.75056 17.4425 4.32589 17.6945 3.98989C17.9558 3.65389 18.2545 3.40189 18.5905 3.23389C18.9265 3.05656 19.2765 2.96789 19.6405 2.96789C20.0698 2.96789 20.4431 3.06589 20.7605 3.26189C21.0871 3.44856 21.3485 3.71922 21.5445 4.07389C21.7498 4.42856 21.8711 4.85322 21.9085 5.34789H21.5445C21.6845 4.80656 21.8758 4.36322 22.1185 4.01789C22.3705 3.66322 22.6598 3.40189 22.9865 3.23389C23.3225 3.05656 23.6678 2.96789 24.0225 2.96789C24.4705 2.96789 24.8625 3.07056 25.1985 3.27589C25.5345 3.48122 25.7911 3.77989 25.9685 4.17189C26.1551 4.56389 26.2485 5.04922 26.2485 5.62789V11.0879ZM28.7125 11.0879V3.12189H29.7345V11.0879H28.7125ZM29.2305 1.63789C29.0158 1.63789 28.8385 1.56322 28.6985 1.41389C28.5585 1.26456 28.4885 1.06389 28.4885 0.81189C28.4885 0.569223 28.5585 0.373223 28.6985 0.22389C28.8478 0.0745567 29.0251 -0.000110149 29.2305 -0.000110149C29.4451 -0.000110149 29.6225 0.0745567 29.7625 0.22389C29.9025 0.373223 29.9725 0.569223 29.9725 0.81189C29.9725 1.05456 29.9025 1.25522 29.7625 1.41389C29.6225 1.56322 29.4451 1.63789 29.2305 1.63789ZM36.7205 11.0879V5.75389C36.7205 5.12856 36.5851 4.65256 36.3145 4.32589C36.0438 3.98989 35.6798 3.82189 35.2225 3.82189C34.8865 3.82189 34.5691 3.92456 34.2705 4.12989C33.9718 4.33522 33.7291 4.64322 33.5425 5.05389C33.3558 5.46456 33.2625 5.98256 33.2625 6.60789V11.0879H32.2265V3.12189H33.2065L33.2345 5.26389H32.9125C33.1178 4.47989 33.4445 3.90122 33.8925 3.52789C34.3498 3.15456 34.8678 2.96789 35.4465 2.96789C35.9131 2.96789 36.3191 3.07056 36.6645 3.27589C37.0191 3.48122 37.2898 3.77989 37.4765 4.17189C37.6631 4.56389 37.7565 5.04922 37.7565 5.62789V11.0879H36.7205ZM44.2708 5.85189C44.2708 5.40389 44.1915 5.03056 44.0328 4.73189C43.8742 4.43322 43.6688 4.20922 43.4168 4.05989C43.1648 3.91056 42.8942 3.83589 42.6048 3.83589C42.3342 3.83589 42.0682 3.91056 41.8068 4.05989C41.5548 4.20922 41.3495 4.43322 41.1908 4.73189C41.0322 5.03056 40.9528 5.40389 40.9528 5.85189C40.9528 6.27189 41.0322 6.63122 41.1908 6.92989C41.3588 7.21922 41.5688 7.43856 41.8208 7.58789C42.0728 7.72789 42.3388 7.79789 42.6188 7.79789C42.9082 7.79789 43.1742 7.72789 43.4168 7.58789C43.6688 7.43856 43.8742 7.21922 44.0328 6.92989C44.1915 6.64056 44.2708 6.28122 44.2708 5.85189ZM45.2788 5.85189C45.2788 6.44922 45.1528 6.95789 44.9008 7.37789C44.6582 7.78856 44.3315 8.10122 43.9208 8.31589C43.5195 8.53056 43.0855 8.63789 42.6188 8.63789C42.1428 8.63789 41.6995 8.53522 41.2888 8.32989C40.8875 8.11522 40.5608 7.80256 40.3088 7.39189C40.0662 6.97189 39.9448 6.46322 39.9448 5.86589C39.9448 5.24056 40.0662 4.71789 40.3088 4.29789C40.5608 3.86856 40.8922 3.54656 41.3028 3.33189C41.7135 3.10789 42.1522 2.99589 42.6188 2.99589C43.0948 2.99589 43.5335 3.10789 43.9348 3.33189C44.3362 3.55589 44.6582 3.88256 44.9008 4.31189C45.1528 4.73189 45.2788 5.24522 45.2788 5.85189ZM46.0488 3.00989V3.84989L43.9488 3.80789L42.6188 3.13589L46.0488 3.00989ZM41.4428 10.2479L41.8488 10.6539C41.4288 10.8686 41.1068 11.1112 40.8828 11.3819C40.6682 11.6619 40.5608 11.9652 40.5608 12.2919C40.5608 12.7026 40.7428 13.0246 41.1068 13.2579C41.4802 13.5006 41.9655 13.6219 42.5628 13.6219C43.2815 13.6219 43.8555 13.4772 44.2848 13.1879C44.7235 12.8986 44.9428 12.5019 44.9428 11.9979C44.9428 11.6152 44.7842 11.3119 44.4668 11.0879C44.1495 10.8546 43.7108 10.7426 43.1508 10.7519L41.7928 10.7799C41.4288 10.7892 41.1162 10.7332 40.8548 10.6119C40.6028 10.4812 40.4115 10.3132 40.2808 10.1079C40.1502 9.90256 40.0848 9.68322 40.0848 9.44989C40.0848 9.13256 40.2015 8.82922 40.4348 8.53989C40.6682 8.24122 41.0275 8.03122 41.5128 7.90989L41.7648 8.44189C41.4942 8.51656 41.2935 8.63322 41.1628 8.79189C41.0322 8.95056 40.9668 9.10922 40.9668 9.26789C40.9668 9.45456 41.0415 9.61322 41.1908 9.74389C41.3402 9.86522 41.5408 9.92589 41.7928 9.92589L43.2348 9.89789C44.1028 9.88856 44.7748 10.0752 45.2508 10.4579C45.7268 10.8312 45.9648 11.3259 45.9648 11.9419C45.9648 12.4272 45.8248 12.8612 45.5448 13.2439C45.2648 13.6266 44.8635 13.9252 44.3408 14.1399C43.8275 14.3639 43.2068 14.4759 42.4788 14.4759C41.9095 14.4759 41.4055 14.3919 40.9668 14.2239C40.5282 14.0559 40.1828 13.8179 39.9308 13.5099C39.6788 13.2112 39.5528 12.8519 39.5528 12.4319C39.5528 11.9932 39.7162 11.5919 40.0428 11.2279C40.3695 10.8639 40.8362 10.5372 41.4428 10.2479ZM52.4653 7.12589C52.4653 6.47256 52.3813 5.90322 52.2133 5.41789C52.0453 4.92322 51.798 4.54056 51.4713 4.26989C51.154 3.98989 50.7573 3.84989 50.2813 3.84989C49.8053 3.84989 49.3993 3.98989 49.0633 4.26989C48.7273 4.54056 48.4707 4.92322 48.2933 5.41789C48.116 5.91256 48.0273 6.47722 48.0273 7.11189C48.0273 7.75589 48.1113 8.32522 48.2793 8.81989C48.4473 9.30522 48.6993 9.68322 49.0353 9.95389C49.3713 10.2246 49.7727 10.3599 50.2393 10.3599C50.7247 10.3599 51.1307 10.2246 51.4573 9.95389C51.7933 9.68322 52.0453 9.30522 52.2133 8.81989C52.3813 8.32522 52.4653 7.76056 52.4653 7.12589ZM53.5573 7.11189C53.5573 7.92389 53.4267 8.64256 53.1653 9.26789C52.904 9.88389 52.526 10.3692 52.0313 10.7239C51.5367 11.0692 50.93 11.2419 50.2113 11.2419C49.4833 11.2419 48.8767 11.0692 48.3913 10.7239C47.906 10.3692 47.542 9.88389 47.2993 9.26789C47.066 8.64256 46.9493 7.92856 46.9493 7.12589C46.9493 6.32322 47.08 5.60922 47.3413 4.98389C47.612 4.35856 47.9993 3.86856 48.5033 3.51389C49.0073 3.14989 49.6093 2.96789 50.3093 2.96789C51.0467 2.96789 51.6533 3.14989 52.1293 3.51389C52.6053 3.86856 52.96 4.35389 53.1933 4.96989C53.436 5.58589 53.5573 6.29989 53.5573 7.11189Z" fill="#161616"/>
</svg>
