<svg width="12" height="12" viewBox="0 0 12 12" fill="none" xmlns="http://www.w3.org/2000/svg">
<g clip-path="url(#clip0_638_2496)">
<path d="M11.7608 3.09295C11.693 2.83766 11.5593 2.60466 11.3731 2.41728C11.1869 2.22989 10.9548 2.0947 10.6999 2.02522C9.76172 1.77295 6.01172 1.77295 6.01172 1.77295C6.01172 1.77295 2.26172 1.77295 1.32354 2.02522C1.06868 2.0947 0.836548 2.22989 0.650363 2.41728C0.464177 2.60466 0.330472 2.83766 0.262628 3.09295C0.0117188 4.03522 0.0117188 6.00022 0.0117188 6.00022C0.0117188 6.00022 0.0117188 7.96522 0.262628 8.90749C0.330472 9.16279 0.464177 9.39578 0.650363 9.58317C0.836548 9.77055 1.06868 9.90574 1.32354 9.97522C2.26172 10.2275 6.01172 10.2275 6.01172 10.2275C6.01172 10.2275 9.76172 10.2275 10.6999 9.97522C10.9548 9.90574 11.1869 9.77055 11.3731 9.58317C11.5593 9.39578 11.693 9.16279 11.7608 8.90749C12.0117 7.96522 12.0117 6.00022 12.0117 6.00022C12.0117 6.00022 12.0117 4.03522 11.7608 3.09295Z" fill="#FF0302"/>
<path d="M4.78418 7.78446V4.21582L7.92054 6.00014L4.78418 7.78446Z" fill="#FEFEFE"/>
</g>
<defs>
<clipPath id="clip0_638_2496">
<rect width="12" height="12" fill="white"/>
</clipPath>
</defs>
</svg>
